<?xml version="1.0" standalone="no"?>
<svg xmlns:xlink="http://www.w3.org/1999/xlink" id="wave" style="transform:rotate(180deg); transition: 0.3s" viewBox="0 0 1440 390" version="1.1" xmlns="http://www.w3.org/2000/svg"><defs><linearGradient id="sw-gradient-0" x1="0" x2="0" y1="1" y2="0"><stop stop-color="rgba(93, 0, 30, 1)" offset="0%"/><stop stop-color="rgba(238, 76, 124, 1)" offset="100%"/></linearGradient></defs><path style="transform:translate(0, 0px); opacity:1" fill="url(#sw-gradient-0)" d="M0,156L40,136.5C80,117,160,78,240,78C320,78,400,117,480,123.5C560,130,640,104,720,130C800,156,880,234,960,253.5C1040,273,1120,234,1200,214.5C1280,195,1360,195,1440,221C1520,247,1600,299,1680,266.5C1760,234,1840,117,1920,97.5C2000,78,2080,156,2160,182C2240,208,2320,182,2400,143C2480,104,2560,52,2640,45.5C2720,39,2800,78,2880,91C2960,104,3040,91,3120,104C3200,117,3280,156,3360,143C3440,130,3520,65,3600,32.5C3680,0,3760,0,3840,32.5C3920,65,4000,130,4080,188.5C4160,247,4240,299,4320,318.5C4400,338,4480,325,4560,312C4640,299,4720,286,4800,266.5C4880,247,4960,221,5040,188.5C5120,156,5200,117,5280,110.5C5360,104,5440,130,5520,143C5600,156,5680,156,5720,156L5760,156L5760,390L5720,390C5680,390,5600,390,5520,390C5440,390,5360,390,5280,390C5200,390,5120,390,5040,390C4960,390,4880,390,4800,390C4720,390,4640,390,4560,390C4480,390,4400,390,4320,390C4240,390,4160,390,4080,390C4000,390,3920,390,3840,390C3760,390,3680,390,3600,390C3520,390,3440,390,3360,390C3280,390,3200,390,3120,390C3040,390,2960,390,2880,390C2800,390,2720,390,2640,390C2560,390,2480,390,2400,390C2320,390,2240,390,2160,390C2080,390,2000,390,1920,390C1840,390,1760,390,1680,390C1600,390,1520,390,1440,390C1360,390,1280,390,1200,390C1120,390,1040,390,960,390C880,390,800,390,720,390C640,390,560,390,480,390C400,390,320,390,240,390C160,390,80,390,40,390L0,390Z"/><defs><linearGradient id="sw-gradient-1" x1="0" x2="0" y1="1" y2="0"><stop stop-color="rgba(93, 0, 30, 1)" offset="0%"/><stop stop-color="rgba(238, 76, 124, 1)" offset="100%"/></linearGradient></defs><path style="transform:translate(0, 50px); opacity:0.9" fill="url(#sw-gradient-1)" d="M0,234L40,240.5C80,247,160,260,240,234C320,208,400,143,480,143C560,143,640,208,720,240.5C800,273,880,273,960,247C1040,221,1120,169,1200,143C1280,117,1360,117,1440,97.5C1520,78,1600,39,1680,39C1760,39,1840,78,1920,130C2000,182,2080,247,2160,273C2240,299,2320,286,2400,279.5C2480,273,2560,273,2640,286C2720,299,2800,325,2880,318.5C2960,312,3040,273,3120,247C3200,221,3280,208,3360,227.5C3440,247,3520,299,3600,286C3680,273,3760,195,3840,136.5C3920,78,4000,39,4080,45.5C4160,52,4240,104,4320,110.5C4400,117,4480,78,4560,58.5C4640,39,4720,39,4800,84.5C4880,130,4960,221,5040,227.5C5120,234,5200,156,5280,130C5360,104,5440,130,5520,117C5600,104,5680,52,5720,26L5760,0L5760,390L5720,390C5680,390,5600,390,5520,390C5440,390,5360,390,5280,390C5200,390,5120,390,5040,390C4960,390,4880,390,4800,390C4720,390,4640,390,4560,390C4480,390,4400,390,4320,390C4240,390,4160,390,4080,390C4000,390,3920,390,3840,390C3760,390,3680,390,3600,390C3520,390,3440,390,3360,390C3280,390,3200,390,3120,390C3040,390,2960,390,2880,390C2800,390,2720,390,2640,390C2560,390,2480,390,2400,390C2320,390,2240,390,2160,390C2080,390,2000,390,1920,390C1840,390,1760,390,1680,390C1600,390,1520,390,1440,390C1360,390,1280,390,1200,390C1120,390,1040,390,960,390C880,390,800,390,720,390C640,390,560,390,480,390C400,390,320,390,240,390C160,390,80,390,40,390L0,390Z"/><defs><linearGradient id="sw-gradient-2" x1="0" x2="0" y1="1" y2="0"><stop stop-color="rgba(93, 0, 30, 1)" offset="0%"/><stop stop-color="rgba(238, 76, 124, 1)" offset="100%"/></linearGradient></defs><path style="transform:translate(0, 100px); opacity:0.8" fill="url(#sw-gradient-2)" d="M0,156L40,169C80,182,160,208,240,201.5C320,195,400,156,480,117C560,78,640,39,720,52C800,65,880,130,960,130C1040,130,1120,65,1200,52C1280,39,1360,78,1440,117C1520,156,1600,195,1680,221C1760,247,1840,260,1920,273C2000,286,2080,299,2160,292.5C2240,286,2320,260,2400,240.5C2480,221,2560,208,2640,188.5C2720,169,2800,143,2880,143C2960,143,3040,169,3120,169C3200,169,3280,143,3360,149.5C3440,156,3520,195,3600,214.5C3680,234,3760,234,3840,247C3920,260,4000,286,4080,266.5C4160,247,4240,182,4320,162.5C4400,143,4480,169,4560,169C4640,169,4720,143,4800,169C4880,195,4960,273,5040,305.5C5120,338,5200,325,5280,279.5C5360,234,5440,156,5520,162.5C5600,169,5680,260,5720,305.5L5760,351L5760,390L5720,390C5680,390,5600,390,5520,390C5440,390,5360,390,5280,390C5200,390,5120,390,5040,390C4960,390,4880,390,4800,390C4720,390,4640,390,4560,390C4480,390,4400,390,4320,390C4240,390,4160,390,4080,390C4000,390,3920,390,3840,390C3760,390,3680,390,3600,390C3520,390,3440,390,3360,390C3280,390,3200,390,3120,390C3040,390,2960,390,2880,390C2800,390,2720,390,2640,390C2560,390,2480,390,2400,390C2320,390,2240,390,2160,390C2080,390,2000,390,1920,390C1840,390,1760,390,1680,390C1600,390,1520,390,1440,390C1360,390,1280,390,1200,390C1120,390,1040,390,960,390C880,390,800,390,720,390C640,390,560,390,480,390C400,390,320,390,240,390C160,390,80,390,40,390L0,390Z"/></svg>